<svg width="181" height="82" viewBox="0 0 181 82" fill="none" xmlns="http://www.w3.org/2000/svg">
<path d="M12.1973 33.7489C10.2893 33.7489 8.85835 33.3173 7.90438 32.4542C6.9504 31.5457 6.47341 30.2964 6.47341 28.7064C6.47341 27.1165 7.08668 25.7991 8.31322 24.7543C9.58519 23.664 11.1524 23.1189 13.015 23.1189C14.6958 23.1189 16.0586 23.5277 17.1034 24.3454C18.1483 25.1631 18.6707 26.3215 18.6707 27.8206C18.6707 29.6377 18.0801 31.0914 16.899 32.1816C15.7179 33.2265 14.1507 33.7489 12.1973 33.7489ZM11.6521 70.3407C8.69936 70.3407 6.54155 69.2959 5.17873 67.2062C3.86133 65.1165 3.20264 62.3455 3.20264 58.893C3.20264 56.8488 3.45249 54.2367 3.95219 51.0568C4.49732 47.8314 5.17873 44.8332 5.99642 42.0621C6.40527 40.6084 6.9504 39.609 7.63181 39.0639C8.31322 38.5188 9.40348 38.2462 10.9026 38.2462C13.2194 38.2462 14.3778 39.0185 14.3778 40.563C14.3778 41.6987 13.9462 44.3335 13.0831 48.4674C11.9928 53.4644 11.4477 56.8488 11.4477 58.6204C11.4477 59.9832 11.6294 61.0281 11.9928 61.7549C12.3563 62.4818 12.9695 62.8452 13.8327 62.8452C14.6504 62.8452 15.6725 62.2773 16.899 61.1416C18.1256 60.006 19.7609 58.2116 21.8052 55.7585C22.3503 55.1225 22.9636 54.8045 23.645 54.8045C24.2355 54.8045 24.6898 55.0771 25.0078 55.6222C25.3712 56.1673 25.5529 56.9169 25.5529 57.8709C25.5529 59.688 25.1214 61.0962 24.2583 62.0956C19.7609 67.5923 15.5589 70.3407 11.6521 70.3407ZM24.8779 70.3407C23.1517 70.3407 21.9251 69.4322 21.1983 67.6151C20.5169 65.798 20.1762 62.8906 20.1762 58.893C20.1762 52.9874 21.0166 47.3771 22.6974 42.0621C23.1062 40.7447 23.7649 39.7907 24.6735 39.2002C25.6275 38.5642 26.9449 38.2462 28.6257 38.2462C29.5342 38.2462 30.1702 38.3598 30.5336 38.5869C30.8971 38.8141 31.0788 39.2456 31.0788 39.8816C31.0788 40.6084 30.7381 42.2438 30.0566 44.7878C29.6024 46.6049 29.239 48.1948 28.9664 49.5576C28.6938 50.9205 28.4667 52.6013 28.285 54.6001C29.7841 50.6933 31.4649 47.5134 33.3274 45.0603C35.1899 42.6072 37.007 40.8583 38.7787 39.8135C40.5958 38.7686 42.2539 38.2462 43.753 38.2462C46.7058 38.2462 48.1822 39.7226 48.1822 42.6754C48.1822 44.4471 47.6825 47.6497 46.6831 52.2833C45.82 56.2355 45.3884 58.8476 45.3884 60.1195C45.3884 61.9366 46.0471 62.8452 47.3645 62.8452C48.2731 62.8452 49.3406 62.3 50.5671 61.2098C51.8391 60.0741 53.5199 58.257 55.6096 55.7585C56.1547 55.1225 56.768 54.8045 57.4494 54.8045C58.04 54.8045 58.4942 55.0771 58.8122 55.6222C59.1756 56.1673 59.3574 56.9169 59.3574 57.8709C59.3574 59.688 58.9258 61.0962 58.0627 62.0956C56.1093 64.5033 53.9969 66.4794 51.7255 68.0239C49.4996 69.5684 46.9557 70.3407 44.0937 70.3407C41.7769 70.3407 40.028 69.682 38.8469 68.3646C37.6657 67.0018 37.0752 65.0484 37.0752 62.5045C37.0752 61.2325 37.3932 58.9611 38.0292 55.6904C38.6197 52.8284 38.915 50.8523 38.915 49.7621C38.915 49.0352 38.6651 48.6718 38.1654 48.6718C37.5749 48.6718 36.7345 49.4441 35.6442 50.9886C34.5994 52.4877 33.5091 54.4865 32.3734 56.985C31.2832 59.4835 30.3974 62.1183 29.7159 64.8894C29.2162 67.0245 28.6257 68.4782 27.9443 69.2504C27.3083 69.9773 26.2862 70.3407 24.8779 70.3407ZM92.5485 54.8045C93.139 54.8045 93.5933 55.0771 93.9113 55.6222C94.2747 56.1673 94.4564 56.9169 94.4564 57.8709C94.4564 59.688 94.0249 61.0962 93.1618 62.0956C91.2992 64.367 89.255 66.3204 87.0291 67.9558C84.8031 69.5457 82.5999 70.3407 80.4194 70.3407C76.9669 70.3407 74.3321 68.3192 72.515 64.2761C70.607 66.6838 68.9262 68.2965 67.4725 69.1142C66.0643 69.9319 64.4062 70.3407 62.4982 70.3407C59.7272 70.3407 57.4331 69.3186 55.616 67.2744C53.8443 65.1847 52.9585 62.4818 52.9585 59.1656C52.9585 55.5314 53.7307 52.1697 55.2753 49.0807C56.8198 45.9462 58.9322 43.4022 61.6124 41.4488C64.338 39.45 67.3817 38.2689 70.7433 37.9055C71.6064 29.0926 73.2418 21.5743 75.6495 15.3508C78.1026 9.08179 81.3052 5.94729 85.2574 5.94729C87.2108 5.94729 88.8234 6.83313 90.0954 8.6048C91.4128 10.3765 92.0715 13.0567 92.0715 16.6455C92.0715 21.7333 90.8222 27.6843 88.3237 34.4984C85.8252 41.3126 82.4863 48.3084 78.307 55.4859C78.4887 58.1207 78.8748 60.006 79.4654 61.1416C80.1014 62.2773 80.8963 62.8452 81.8503 62.8452C83.0769 62.8452 84.3261 62.3 85.5981 61.2098C86.8701 60.1195 88.5736 58.3024 90.7087 55.7585C91.2538 55.1225 91.8671 54.8045 92.5485 54.8045ZM84.5078 12.6251C83.6447 12.6251 82.7816 14.1697 81.9185 17.2587C81.0553 20.3024 80.3058 24.3 79.6698 29.2516C79.0793 34.2032 78.6477 39.3819 78.3751 44.7878C83.463 33.7035 86.0069 24.7997 86.0069 18.0764C86.0069 16.3502 85.8479 15.0101 85.5299 14.0561C85.2574 13.1021 84.9167 12.6251 84.5078 12.6251ZM64.8832 63.4584C65.7463 63.4584 66.6094 63.1177 67.4725 62.4363C68.3357 61.7095 69.4259 60.3921 70.7433 58.4841C70.289 56.0311 70.0619 53.2827 70.0619 50.2391C70.0619 49.1488 70.1073 47.3771 70.1982 44.924C67.6997 45.6963 65.61 47.3771 63.9292 49.9665C62.2938 52.5104 61.4761 55.3496 61.4761 58.4841C61.4761 61.8003 62.6118 63.4584 64.8832 63.4584ZM96.0838 70.3407C93.4945 70.3407 91.3821 69.3186 89.7467 67.2744C88.1568 65.2301 87.3618 62.5499 87.3618 59.2337C87.3618 55.5995 88.2022 52.1697 89.883 48.9444C91.5638 45.6736 93.7898 43.0615 96.5608 41.1081C99.3773 39.1093 102.353 38.1099 105.487 38.1099C106.487 38.1099 107.145 38.3144 107.463 38.7232C107.827 39.0866 108.122 39.768 108.349 40.7674C109.212 40.5857 110.166 40.4949 111.211 40.4949C112.301 40.4949 113.142 40.7674 113.732 41.3126C114.323 41.8577 114.618 42.63 114.618 43.6294C114.618 44.6742 114.391 46.4913 113.937 49.0807C113.437 51.8517 113.051 54.5092 112.778 57.0532C112.506 59.5517 112.37 62.3682 112.37 65.5027C112.37 67.2289 112.006 68.4782 111.279 69.2504C110.598 69.9773 109.462 70.3407 107.872 70.3407C106.328 70.3407 105.169 69.9773 104.397 69.2504C103.67 68.4782 103.307 67.2516 103.307 65.5708L103.375 64.4806C101.967 68.3873 99.5363 70.3407 96.0838 70.3407ZM98.7414 63.4584C100.013 63.4584 101.172 62.5726 102.217 60.8009C103.261 59.0293 104.193 55.8721 105.01 51.3293L106.305 44.4471C104.443 44.4925 102.716 45.2193 101.126 46.6276C99.5363 47.9904 98.2644 49.8075 97.3104 52.0789C96.3564 54.3502 95.8794 56.7579 95.8794 59.3018C95.8794 60.6647 96.1293 61.7095 96.629 62.4363C97.1741 63.1177 97.8782 63.4584 98.7414 63.4584ZM145.219 33.7489C143.311 33.7489 141.88 33.3173 140.926 32.4542C139.972 31.5457 139.495 30.2964 139.495 28.7064C139.495 27.1165 140.108 25.7991 141.335 24.7543C142.607 23.664 144.174 23.1189 146.037 23.1189C147.717 23.1189 149.08 23.5277 150.125 24.3454C151.17 25.1631 151.692 26.3215 151.692 27.8206C151.692 29.6377 151.102 31.0914 149.921 32.1816C148.74 33.2265 147.172 33.7489 145.219 33.7489ZM144.674 70.3407C141.721 70.3407 139.563 69.2959 138.2 67.2062C136.883 65.1165 136.224 62.3455 136.224 58.893C136.224 56.8488 136.474 54.2367 136.974 51.0568C137.519 47.8314 138.2 44.8332 139.018 42.0621C139.427 40.6084 139.972 39.609 140.653 39.0639C141.335 38.5188 142.425 38.2462 143.924 38.2462C146.241 38.2462 147.399 39.0185 147.399 40.563C147.399 41.6987 146.968 44.3335 146.105 48.4674C145.015 53.4644 144.469 56.8488 144.469 58.6204C144.469 59.9832 144.651 61.0281 145.015 61.7549C145.378 62.4818 145.991 62.8452 146.854 62.8452C147.672 62.8452 148.694 62.2773 149.921 61.1416C151.147 60.006 152.783 58.2116 154.827 55.7585C155.372 55.1225 155.985 54.8045 156.667 54.8045C157.257 54.8045 157.712 55.0771 158.029 55.6222C158.393 56.1673 158.575 56.9169 158.575 57.8709C158.575 59.688 158.143 61.0962 157.28 62.0956C152.783 67.5923 148.581 70.3407 144.674 70.3407ZM160.898 70.3407C158.308 70.3407 156.196 69.3186 154.561 67.2744C152.971 65.2301 152.176 62.5499 152.176 59.2337C152.176 55.5995 153.016 52.1697 154.697 48.9444C156.378 45.6736 158.604 43.0615 161.375 41.1081C164.191 39.1093 167.167 38.1099 170.301 38.1099C171.301 38.1099 171.959 38.3144 172.277 38.7232C172.641 39.0866 172.936 39.768 173.163 40.7674C174.026 40.5857 174.98 40.4949 176.025 40.4949C177.115 40.4949 177.956 40.7674 178.546 41.3126C179.137 41.8577 179.432 42.63 179.432 43.6294C179.432 44.6742 179.205 46.4913 178.751 49.0807C178.251 51.8517 177.865 54.5092 177.592 57.0532C177.32 59.5517 177.184 62.3682 177.184 65.5027C177.184 67.2289 176.82 68.4782 176.093 69.2504C175.412 69.9773 174.276 70.3407 172.686 70.3407C171.142 70.3407 169.983 69.9773 169.211 69.2504C168.484 68.4782 168.121 67.2516 168.121 65.5708L168.189 64.4806C166.781 68.3873 164.35 70.3407 160.898 70.3407ZM163.555 63.4584C164.827 63.4584 165.986 62.5726 167.031 60.8009C168.075 59.0293 169.007 55.8721 169.824 51.3293L171.119 44.4471C169.256 44.4925 167.53 45.2193 165.94 46.6276C164.35 47.9904 163.078 49.8075 162.124 52.0789C161.17 54.3502 160.693 56.7579 160.693 59.3018C160.693 60.6647 160.943 61.7095 161.443 62.4363C161.988 63.1177 162.692 63.4584 163.555 63.4584Z" fill="#D5F0FF"/>
<path d="M124.159 70.3407C122.16 70.3407 120.638 69.7956 119.593 68.7053C118.594 67.6151 118.094 66.1841 118.094 64.4124C118.094 62.3682 118.662 60.7328 119.798 59.5063C120.979 58.2797 122.614 57.6664 124.704 57.6664C126.702 57.6664 128.202 58.1661 129.201 59.1656C130.246 60.1195 130.768 61.5505 130.768 63.4584C130.768 65.5481 130.178 67.2289 128.997 68.5009C127.815 69.7274 126.203 70.3407 124.159 70.3407Z" fill="#3182CE"/>
<g clip-path="url(#clip0_19_766)">
<path d="M12.1973 33.7489C10.2893 33.7489 8.85835 33.3173 7.90438 32.4542C6.9504 31.5457 6.47341 30.2964 6.47341 28.7064C6.47341 27.1165 7.08668 25.7991 8.31322 24.7543C9.58519 23.664 11.1524 23.1189 13.015 23.1189C14.6958 23.1189 16.0586 23.5277 17.1034 24.3454C18.1483 25.1631 18.6707 26.3215 18.6707 27.8206C18.6707 29.6377 18.0801 31.0914 16.899 32.1816C15.7179 33.2265 14.1507 33.7489 12.1973 33.7489ZM11.6521 70.3407C8.69936 70.3407 6.54155 69.2959 5.17873 67.2062C3.86133 65.1165 3.20264 62.3455 3.20264 58.893C3.20264 56.8488 3.45249 54.2367 3.95219 51.0568C4.49732 47.8314 5.17873 44.8332 5.99642 42.0621C6.40527 40.6084 6.9504 39.609 7.63181 39.0639C8.31322 38.5188 9.40348 38.2462 10.9026 38.2462C13.2194 38.2462 14.3778 39.0185 14.3778 40.563C14.3778 41.6987 13.9462 44.3335 13.0831 48.4674C11.9928 53.4644 11.4477 56.8488 11.4477 58.6204C11.4477 59.9832 11.6294 61.0281 11.9928 61.7549C12.3563 62.4818 12.9695 62.8452 13.8327 62.8452C14.6504 62.8452 15.6725 62.2773 16.899 61.1416C18.1256 60.006 19.7609 58.2116 21.8052 55.7585C22.3503 55.1225 22.9636 54.8045 23.645 54.8045C24.2355 54.8045 24.6898 55.0771 25.0078 55.6222C25.3712 56.1673 25.5529 56.9169 25.5529 57.8709C25.5529 59.688 25.1214 61.0962 24.2583 62.0956C19.7609 67.5923 15.5589 70.3407 11.6521 70.3407ZM24.8779 70.3407C23.1517 70.3407 21.9251 69.4322 21.1983 67.6151C20.5169 65.798 20.1762 62.8906 20.1762 58.893C20.1762 52.9874 21.0166 47.3771 22.6974 42.0621C23.1062 40.7447 23.7649 39.7907 24.6735 39.2002C25.6275 38.5642 26.9449 38.2462 28.6257 38.2462C29.5342 38.2462 30.1702 38.3598 30.5336 38.5869C30.8971 38.8141 31.0788 39.2456 31.0788 39.8816C31.0788 40.6084 30.7381 42.2438 30.0566 44.7878C29.6024 46.6049 29.239 48.1948 28.9664 49.5576C28.6938 50.9205 28.4667 52.6013 28.285 54.6001C29.7841 50.6933 31.4649 47.5134 33.3274 45.0603C35.1899 42.6072 37.007 40.8583 38.7787 39.8135C40.5958 38.7686 42.2539 38.2462 43.753 38.2462C46.7058 38.2462 48.1822 39.7226 48.1822 42.6754C48.1822 44.4471 47.6825 47.6497 46.6831 52.2833C45.82 56.2355 45.3884 58.8476 45.3884 60.1195C45.3884 61.9366 46.0471 62.8452 47.3645 62.8452C48.2731 62.8452 49.3406 62.3 50.5671 61.2098C51.8391 60.0741 53.5199 58.257 55.6096 55.7585C56.1547 55.1225 56.768 54.8045 57.4494 54.8045C58.04 54.8045 58.4942 55.0771 58.8122 55.6222C59.1756 56.1673 59.3574 56.9169 59.3574 57.8709C59.3574 59.688 58.9258 61.0962 58.0627 62.0956C56.1093 64.5033 53.9969 66.4794 51.7255 68.0239C49.4996 69.5684 46.9557 70.3407 44.0937 70.3407C41.7769 70.3407 40.028 69.682 38.8469 68.3646C37.6657 67.0018 37.0752 65.0484 37.0752 62.5045C37.0752 61.2325 37.3932 58.9611 38.0292 55.6904C38.6197 52.8284 38.915 50.8523 38.915 49.7621C38.915 49.0352 38.6651 48.6718 38.1654 48.6718C37.5749 48.6718 36.7345 49.4441 35.6442 50.9886C34.5994 52.4877 33.5091 54.4865 32.3734 56.985C31.2832 59.4835 30.3974 62.1183 29.7159 64.8894C29.2162 67.0245 28.6257 68.4782 27.9443 69.2504C27.3083 69.9773 26.2862 70.3407 24.8779 70.3407ZM92.5485 54.8045C93.139 54.8045 93.5933 55.0771 93.9113 55.6222C94.2747 56.1673 94.4564 56.9169 94.4564 57.8709C94.4564 59.688 94.0249 61.0962 93.1618 62.0956C91.2992 64.367 89.255 66.3204 87.0291 67.9558C84.8031 69.5457 82.5999 70.3407 80.4194 70.3407C76.9669 70.3407 74.3321 68.3192 72.515 64.2761C70.607 66.6838 68.9262 68.2965 67.4725 69.1142C66.0643 69.9319 64.4062 70.3407 62.4982 70.3407C59.7272 70.3407 57.4331 69.3186 55.616 67.2744C53.8443 65.1847 52.9585 62.4818 52.9585 59.1656C52.9585 55.5314 53.7307 52.1697 55.2753 49.0807C56.8198 45.9462 58.9322 43.4022 61.6124 41.4488C64.338 39.45 67.3817 38.2689 70.7433 37.9055C71.6064 29.0926 73.2418 21.5743 75.6495 15.3508C78.1026 9.08179 81.3052 5.94729 85.2574 5.94729C87.2108 5.94729 88.8234 6.83313 90.0954 8.6048C91.4128 10.3765 92.0715 13.0567 92.0715 16.6455C92.0715 21.7333 90.8222 27.6843 88.3237 34.4984C85.8252 41.3126 82.4863 48.3084 78.307 55.4859C78.4887 58.1207 78.8748 60.006 79.4654 61.1416C80.1014 62.2773 80.8963 62.8452 81.8503 62.8452C83.0769 62.8452 84.3261 62.3 85.5981 61.2098C86.8701 60.1195 88.5736 58.3024 90.7087 55.7585C91.2538 55.1225 91.8671 54.8045 92.5485 54.8045ZM84.5078 12.6251C83.6447 12.6251 82.7816 14.1697 81.9185 17.2587C81.0553 20.3024 80.3058 24.3 79.6698 29.2516C79.0793 34.2032 78.6477 39.3819 78.3751 44.7878C83.463 33.7035 86.0069 24.7997 86.0069 18.0764C86.0069 16.3502 85.8479 15.0101 85.5299 14.0561C85.2574 13.1021 84.9167 12.6251 84.5078 12.6251ZM64.8832 63.4584C65.7463 63.4584 66.6094 63.1177 67.4725 62.4363C68.3357 61.7095 69.4259 60.3921 70.7433 58.4841C70.289 56.0311 70.0619 53.2827 70.0619 50.2391C70.0619 49.1488 70.1073 47.3771 70.1982 44.924C67.6997 45.6963 65.61 47.3771 63.9292 49.9665C62.2938 52.5104 61.4761 55.3496 61.4761 58.4841C61.4761 61.8003 62.6118 63.4584 64.8832 63.4584ZM96.0838 70.3407C93.4945 70.3407 91.3821 69.3186 89.7467 67.2744C88.1568 65.2301 87.3618 62.5499 87.3618 59.2337C87.3618 55.5995 88.2022 52.1697 89.883 48.9444C91.5638 45.6736 93.7898 43.0615 96.5608 41.1081C99.3773 39.1093 102.353 38.1099 105.487 38.1099C106.487 38.1099 107.145 38.3144 107.463 38.7232C107.827 39.0866 108.122 39.768 108.349 40.7674C109.212 40.5857 110.166 40.4949 111.211 40.4949C112.301 40.4949 113.142 40.7674 113.732 41.3126C114.323 41.8577 114.618 42.63 114.618 43.6294C114.618 44.6742 114.391 46.4913 113.937 49.0807C113.437 51.8517 113.051 54.5092 112.778 57.0532C112.506 59.5517 112.37 62.3682 112.37 65.5027C112.37 67.2289 112.006 68.4782 111.279 69.2504C110.598 69.9773 109.462 70.3407 107.872 70.3407C106.328 70.3407 105.169 69.9773 104.397 69.2504C103.67 68.4782 103.307 67.2516 103.307 65.5708L103.375 64.4806C101.967 68.3873 99.5363 70.3407 96.0838 70.3407ZM98.7414 63.4584C100.013 63.4584 101.172 62.5726 102.217 60.8009C103.261 59.0293 104.193 55.8721 105.01 51.3293L106.305 44.4471C104.443 44.4925 102.716 45.2193 101.126 46.6276C99.5363 47.9904 98.2644 49.8075 97.3104 52.0789C96.3564 54.3502 95.8794 56.7579 95.8794 59.3018C95.8794 60.6647 96.1293 61.7095 96.629 62.4363C97.1741 63.1177 97.8782 63.4584 98.7414 63.4584ZM124.159 70.3407C122.16 70.3407 120.638 69.7956 119.593 68.7053C118.594 67.6151 118.094 66.1841 118.094 64.4124C118.094 62.3682 118.662 60.7328 119.798 59.5063C120.979 58.2797 122.614 57.6664 124.704 57.6664C126.702 57.6664 128.202 58.1661 129.201 59.1656C130.246 60.1195 130.768 61.5505 130.768 63.4584C130.768 65.5481 130.178 67.2289 128.997 68.5009C127.815 69.7274 126.203 70.3407 124.159 70.3407ZM145.219 33.7489C143.311 33.7489 141.88 33.3173 140.926 32.4542C139.972 31.5457 139.495 30.2964 139.495 28.7064C139.495 27.1165 140.108 25.7991 141.335 24.7543C142.607 23.664 144.174 23.1189 146.037 23.1189C147.717 23.1189 149.08 23.5277 150.125 24.3454C151.17 25.1631 151.692 26.3215 151.692 27.8206C151.692 29.6377 151.102 31.0914 149.921 32.1816C148.74 33.2265 147.172 33.7489 145.219 33.7489ZM144.674 70.3407C141.721 70.3407 139.563 69.2959 138.2 67.2062C136.883 65.1165 136.224 62.3455 136.224 58.893C136.224 56.8488 136.474 54.2367 136.974 51.0568C137.519 47.8314 138.2 44.8332 139.018 42.0621C139.427 40.6084 139.972 39.609 140.653 39.0639C141.335 38.5188 142.425 38.2462 143.924 38.2462C146.241 38.2462 147.399 39.0185 147.399 40.563C147.399 41.6987 146.968 44.3335 146.105 48.4674C145.015 53.4644 144.469 56.8488 144.469 58.6204C144.469 59.9832 144.651 61.0281 145.015 61.7549C145.378 62.4818 145.991 62.8452 146.854 62.8452C147.672 62.8452 148.694 62.2773 149.921 61.1416C151.147 60.006 152.783 58.2116 154.827 55.7585C155.372 55.1225 155.985 54.8045 156.667 54.8045C157.257 54.8045 157.712 55.0771 158.029 55.6222C158.393 56.1673 158.575 56.9169 158.575 57.8709C158.575 59.688 158.143 61.0962 157.28 62.0956C152.783 67.5923 148.581 70.3407 144.674 70.3407ZM160.898 70.3407C158.308 70.3407 156.196 69.3186 154.561 67.2744C152.971 65.2301 152.176 62.5499 152.176 59.2337C152.176 55.5995 153.016 52.1697 154.697 48.9444C156.378 45.6736 158.604 43.0615 161.375 41.1081C164.191 39.1093 167.167 38.1099 170.301 38.1099C171.301 38.1099 171.959 38.3144 172.277 38.7232C172.641 39.0866 172.936 39.768 173.163 40.7674C174.026 40.5857 174.98 40.4949 176.025 40.4949C177.115 40.4949 177.956 40.7674 178.546 41.3126C179.137 41.8577 179.432 42.63 179.432 43.6294C179.432 44.6742 179.205 46.4913 178.751 49.0807C178.251 51.8517 177.865 54.5092 177.592 57.0532C177.32 59.5517 177.184 62.3682 177.184 65.5027C177.184 67.2289 176.82 68.4782 176.093 69.2504C175.412 69.9773 174.276 70.3407 172.686 70.3407C171.142 70.3407 169.983 69.9773 169.211 69.2504C168.484 68.4782 168.121 67.2516 168.121 65.5708L168.189 64.4806C166.781 68.3873 164.35 70.3407 160.898 70.3407ZM163.555 63.4584C164.827 63.4584 165.986 62.5726 167.031 60.8009C168.075 59.0293 169.007 55.8721 169.824 51.3293L171.119 44.4471C169.256 44.4925 167.53 45.2193 165.94 46.6276C164.35 47.9904 163.078 49.8075 162.124 52.0789C161.17 54.3502 160.693 56.7579 160.693 59.3018C160.693 60.6647 160.943 61.7095 161.443 62.4363C161.988 63.1177 162.692 63.4584 163.555 63.4584Z" fill="#3182CE"/>
</g>
<g clip-path="url(#clip1_19_766)">
<path d="M145.285 33.7489C143.378 33.7489 141.947 33.3173 140.993 32.4542C140.039 31.5457 139.562 30.2964 139.562 28.7064C139.562 27.1165 140.175 25.7991 141.401 24.7543C142.673 23.664 144.241 23.1189 146.103 23.1189C147.784 23.1189 149.147 23.5277 150.192 24.3454C151.236 25.1631 151.759 26.3215 151.759 27.8206C151.759 29.6377 151.168 31.0914 149.987 32.1816C148.806 33.2265 147.239 33.7489 145.285 33.7489ZM144.74 70.3407C141.788 70.3407 139.63 69.2959 138.267 67.2062C136.95 65.1165 136.291 62.3455 136.291 58.893C136.291 56.8488 136.541 54.2367 137.04 51.0568C137.586 47.8314 138.267 44.8332 139.085 42.0621C139.493 40.6084 140.039 39.609 140.72 39.0639C141.401 38.5188 142.492 38.2462 143.991 38.2462C146.308 38.2462 147.466 39.0185 147.466 40.563C147.466 41.6987 147.034 44.3335 146.171 48.4674C145.081 53.4644 144.536 56.8488 144.536 58.6204C144.536 59.9832 144.718 61.0281 145.081 61.7549C145.444 62.4818 146.058 62.8452 146.921 62.8452C147.739 62.8452 148.761 62.2773 149.987 61.1416C151.214 60.006 152.849 58.2116 154.893 55.7585C155.439 55.1225 156.052 54.8045 156.733 54.8045C157.324 54.8045 157.778 55.0771 158.096 55.6222C158.459 56.1673 158.641 56.9169 158.641 57.8709C158.641 59.688 158.21 61.0962 157.346 62.0956C152.849 67.5923 148.647 70.3407 144.74 70.3407ZM157.966 70.3407C156.24 70.3407 155.013 69.4322 154.287 67.6151C153.605 65.798 153.264 62.8906 153.264 58.893C153.264 52.9874 154.105 47.3771 155.786 42.0621C156.194 40.7447 156.853 39.7907 157.762 39.2002C158.716 38.5642 160.033 38.2462 161.714 38.2462C162.622 38.2462 163.258 38.3598 163.622 38.5869C163.985 38.8141 164.167 39.2456 164.167 39.8816C164.167 40.6084 163.826 42.2438 163.145 44.7878C162.691 46.6049 162.327 48.1948 162.055 49.5576C161.782 50.9205 161.555 52.6013 161.373 54.6001C162.872 50.6933 164.553 47.5134 166.416 45.0603C168.278 42.6072 170.095 40.8583 171.867 39.8135C173.684 38.7686 175.342 38.2462 176.841 38.2462C179.794 38.2462 181.27 39.7226 181.27 42.6754C181.27 44.4471 180.771 47.6497 179.771 52.2833C178.908 56.2355 178.477 58.8476 178.477 60.1195C178.477 61.9366 179.135 62.8452 180.453 62.8452C181.361 62.8452 182.429 62.3 183.655 61.2098C184.927 60.0741 186.608 58.257 188.698 55.7585C189.243 55.1225 189.856 54.8045 190.538 54.8045C191.128 54.8045 191.582 55.0771 191.9 55.6222C192.264 56.1673 192.446 56.9169 192.446 57.8709C192.446 59.688 192.014 61.0962 191.151 62.0956C189.198 64.5033 187.085 66.4794 184.814 68.0239C182.588 69.5684 180.044 70.3407 177.182 70.3407C174.865 70.3407 173.116 69.682 171.935 68.3646C170.754 67.0018 170.163 65.0484 170.163 62.5045C170.163 61.2325 170.481 58.9611 171.117 55.6904C171.708 52.8284 172.003 50.8523 172.003 49.7621C172.003 49.0352 171.753 48.6718 171.254 48.6718C170.663 48.6718 169.823 49.4441 168.732 50.9886C167.688 52.4877 166.597 54.4865 165.462 56.985C164.371 59.4835 163.486 62.1183 162.804 64.8894C162.304 67.0245 161.714 68.4782 161.032 69.2504C160.397 69.9773 159.374 70.3407 157.966 70.3407ZM225.637 54.8045C226.227 54.8045 226.682 55.0771 227 55.6222C227.363 56.1673 227.545 56.9169 227.545 57.8709C227.545 59.688 227.113 61.0962 226.25 62.0956C224.387 64.367 222.343 66.3204 220.117 67.9558C217.891 69.5457 215.688 70.3407 213.508 70.3407C210.055 70.3407 207.42 68.3192 205.603 64.2761C203.695 66.6838 202.014 68.2965 200.561 69.1142C199.153 69.9319 197.494 70.3407 195.586 70.3407C192.815 70.3407 190.521 69.3186 188.704 67.2744C186.933 65.1847 186.047 62.4818 186.047 59.1656C186.047 55.5314 186.819 52.1697 188.363 49.0807C189.908 45.9462 192.02 43.4022 194.701 41.4488C197.426 39.45 200.47 38.2689 203.832 37.9055C204.695 29.0926 206.33 21.5743 208.738 15.3508C211.191 9.08179 214.393 5.94729 218.346 5.94729C220.299 5.94729 221.912 6.83313 223.184 8.6048C224.501 10.3765 225.16 13.0567 225.16 16.6455C225.16 21.7333 223.91 27.6843 221.412 34.4984C218.913 41.3126 215.575 48.3084 211.395 55.4859C211.577 58.1207 211.963 60.006 212.554 61.1416C213.19 62.2773 213.985 62.8452 214.939 62.8452C216.165 62.8452 217.414 62.3 218.686 61.2098C219.958 60.1195 221.662 58.3024 223.797 55.7585C224.342 55.1225 224.955 54.8045 225.637 54.8045ZM217.596 12.6251C216.733 12.6251 215.87 14.1697 215.007 17.2587C214.144 20.3024 213.394 24.3 212.758 29.2516C212.167 34.2032 211.736 39.3819 211.463 44.7878C216.551 33.7035 219.095 24.7997 219.095 18.0764C219.095 16.3502 218.936 15.0101 218.618 14.0561C218.346 13.1021 218.005 12.6251 217.596 12.6251ZM197.971 63.4584C198.835 63.4584 199.698 63.1177 200.561 62.4363C201.424 61.7095 202.514 60.3921 203.832 58.4841C203.377 56.0311 203.15 53.2827 203.15 50.2391C203.15 49.1488 203.196 47.3771 203.286 44.924C200.788 45.6963 198.698 47.3771 197.017 49.9665C195.382 52.5104 194.564 55.3496 194.564 58.4841C194.564 61.8003 195.7 63.4584 197.971 63.4584ZM229.172 70.3407C226.583 70.3407 224.47 69.3186 222.835 67.2744C221.245 65.2301 220.45 62.5499 220.45 59.2337C220.45 55.5995 221.29 52.1697 222.971 48.9444C224.652 45.6736 226.878 43.0615 229.649 41.1081C232.466 39.1093 235.441 38.1099 238.576 38.1099C239.575 38.1099 240.234 38.3144 240.552 38.7232C240.915 39.0866 241.21 39.768 241.437 40.7674C242.301 40.5857 243.255 40.4949 244.299 40.4949C245.39 40.4949 246.23 40.7674 246.821 41.3126C247.411 41.8577 247.706 42.63 247.706 43.6294C247.706 44.6742 247.479 46.4913 247.025 49.0807C246.525 51.8517 246.139 54.5092 245.867 57.0532C245.594 59.5517 245.458 62.3682 245.458 65.5027C245.458 67.2289 245.094 68.4782 244.368 69.2504C243.686 69.9773 242.55 70.3407 240.96 70.3407C239.416 70.3407 238.258 69.9773 237.485 69.2504C236.758 68.4782 236.395 67.2516 236.395 65.5708L236.463 64.4806C235.055 68.3873 232.625 70.3407 229.172 70.3407ZM231.83 63.4584C233.102 63.4584 234.26 62.5726 235.305 60.8009C236.35 59.0293 237.281 55.8721 238.099 51.3293L239.393 44.4471C237.531 44.4925 235.804 45.2193 234.215 46.6276C232.625 47.9904 231.353 49.8075 230.399 52.0789C229.445 54.3502 228.968 56.7579 228.968 59.3018C228.968 60.6647 229.218 61.7095 229.717 62.4363C230.262 63.1177 230.966 63.4584 231.83 63.4584ZM257.247 70.3407C255.248 70.3407 253.726 69.7956 252.681 68.7053C251.682 67.6151 251.182 66.1841 251.182 64.4124C251.182 62.3682 251.75 60.7328 252.886 59.5063C254.067 58.2797 255.702 57.6664 257.792 57.6664C259.791 57.6664 261.29 58.1661 262.289 59.1656C263.334 60.1195 263.856 61.5505 263.856 63.4584C263.856 65.5481 263.266 67.2289 262.085 68.5009C260.904 69.7274 259.291 70.3407 257.247 70.3407ZM278.307 33.7489C276.399 33.7489 274.968 33.3173 274.014 32.4542C273.06 31.5457 272.583 30.2964 272.583 28.7064C272.583 27.1165 273.197 25.7991 274.423 24.7543C275.695 23.664 277.262 23.1189 279.125 23.1189C280.806 23.1189 282.169 23.5277 283.213 24.3454C284.258 25.1631 284.781 26.3215 284.781 27.8206C284.781 29.6377 284.19 31.0914 283.009 32.1816C281.828 33.2265 280.261 33.7489 278.307 33.7489ZM277.762 70.3407C274.809 70.3407 272.651 69.2959 271.289 67.2062C269.971 65.1165 269.313 62.3455 269.313 58.893C269.313 56.8488 269.562 54.2367 270.062 51.0568C270.607 47.8314 271.289 44.8332 272.106 42.0621C272.515 40.6084 273.06 39.609 273.742 39.0639C274.423 38.5188 275.513 38.2462 277.012 38.2462C279.329 38.2462 280.488 39.0185 280.488 40.563C280.488 41.6987 280.056 44.3335 279.193 48.4674C278.103 53.4644 277.558 56.8488 277.558 58.6204C277.558 59.9832 277.739 61.0281 278.103 61.7549C278.466 62.4818 279.079 62.8452 279.943 62.8452C280.76 62.8452 281.782 62.2773 283.009 61.1416C284.235 60.006 285.871 58.2116 287.915 55.7585C288.46 55.1225 289.073 54.8045 289.755 54.8045C290.345 54.8045 290.8 55.0771 291.118 55.6222C291.481 56.1673 291.663 56.9169 291.663 57.8709C291.663 59.688 291.231 61.0962 290.368 62.0956C285.871 67.5923 281.669 70.3407 277.762 70.3407ZM293.986 70.3407C291.397 70.3407 289.284 69.3186 287.649 67.2744C286.059 65.2301 285.264 62.5499 285.264 59.2337C285.264 55.5995 286.104 52.1697 287.785 48.9444C289.466 45.6736 291.692 43.0615 294.463 41.1081C297.28 39.1093 300.255 38.1099 303.39 38.1099C304.389 38.1099 305.048 38.3144 305.366 38.7232C305.729 39.0866 306.024 39.768 306.251 40.7674C307.115 40.5857 308.069 40.4949 309.113 40.4949C310.204 40.4949 311.044 40.7674 311.635 41.3126C312.225 41.8577 312.52 42.63 312.52 43.6294C312.52 44.6742 312.293 46.4913 311.839 49.0807C311.339 51.8517 310.953 54.5092 310.681 57.0532C310.408 59.5517 310.272 62.3682 310.272 65.5027C310.272 67.2289 309.908 68.4782 309.182 69.2504C308.5 69.9773 307.364 70.3407 305.774 70.3407C304.23 70.3407 303.072 69.9773 302.299 69.2504C301.572 68.4782 301.209 67.2516 301.209 65.5708L301.277 64.4806C299.869 68.3873 297.439 70.3407 293.986 70.3407ZM296.644 63.4584C297.916 63.4584 299.074 62.5726 300.119 60.8009C301.164 59.0293 302.095 55.8721 302.913 51.3293L304.207 44.4471C302.345 44.4925 300.618 45.2193 299.028 46.6276C297.439 47.9904 296.167 49.8075 295.213 52.0789C294.259 54.3502 293.782 56.7579 293.782 59.3018C293.782 60.6647 294.031 61.7095 294.531 62.4363C295.076 63.1177 295.78 63.4584 296.644 63.4584Z" fill="#3182CE"/>
</g>
<defs>
<clipPath id="clip0_19_766">
<rect width="20.2294" height="36.2" fill="white"/>
</clipPath>
<clipPath id="clip1_19_766">
<rect width="23.9559" height="36.2" fill="white" transform="translate(133.088)"/>
</clipPath>
</defs>
</svg>
