<svg width="17" height="16" viewBox="0 0 17 16" fill="none" xmlns="http://www.w3.org/2000/svg">
<path d="M13.1666 8.66667V9.33333C13.1666 10.8878 13.1666 11.6651 12.8856 12.2679C12.5875 12.9071 12.0737 13.4208 11.4345 13.7189C10.8317 14 10.0545 14 8.49998 14V14C6.94548 14 6.16823 14 5.56546 13.7189C4.92623 13.4208 4.41247 12.9071 4.11439 12.2679C3.83331 11.6651 3.83331 10.8878 3.83331 9.33333V6.66667C3.83331 5.11217 3.83331 4.33492 4.11439 3.73215C4.41247 3.09292 4.92623 2.57915 5.56546 2.28108C6.16823 2 6.94548 2 8.49998 2V2" stroke="#3182CE" stroke-linecap="round"/>
<path d="M12.5 2L12.5 6" stroke="#3182CE" stroke-linecap="round"/>
<path d="M14.5 4L10.5 4" stroke="#3182CE" stroke-linecap="round"/>
<path d="M6.5 8.66666L10.5 8.66666" stroke="#3182CE" stroke-linecap="round"/>
<path d="M6.5 6L9.16667 6" stroke="#3182CE" stroke-linecap="round"/>
<path d="M6.5 11.3333L9.16667 11.3333" stroke="#3182CE" stroke-linecap="round"/>
</svg>
